{"title":"Mr Peabody and Sherman (2014) WEBRIP 720p (Hardcoded Subtitles)","uid":10149957,"size":922785444,"categoryP":"video","categoryS":"hd___movies","magnet":"?xt=urn:btih:319ff6bf9bfd76694ceea95d55bf20ba74109f9e&amp;dn=Mr+Peabody+and+Sherman+%282014%29+WEBRIP+720p+%28Hardcoded+Subtitles%29&amp;tr=udp%3A%2F%2Ftracker.openbittorrent.com%3A80&amp;tr=udp%3A%2F%2Fopen.demonii.com%3A1337&amp;tr=udp%3A%2F%2Ftracker.coppersurfer.tk%3A6969&amp;tr=udp%3A%2F%2Fexodus.desync.com%3A6969","seeders":3,"leechers":0,"uploader":"LifeOK","files":1,"time":1400091538,"description":"Format : Matroska\nFormat version : Version 4 / Version 2\nFile size : 880 MiB\nDuration : 1h 32mn\nOverall bit rate : 1 331 Kbps\nMovie name : Mr. Peabody &amp; Sherman (2014)\nEncoded date : UTC 2014-05-12 15:23:39\nTITLE : Mr. Peabody &amp; Sherman (2014)\nIMDB : tt0864835\nTMDB : 82703\nDATE_RELEASED : 2014-03-07\nSUMMARY : A young boy and his dog, who happens to have a genius-level IQ, spring into action when their time-travel machine is stolen and moments in history begin to be changed.\nGENRE : Family\nDIRECTOR : Rob Minkoff\n\nVideo\nID : 1\nFormat : AVC\nFormat/Info : Advanced Video Codec\nFormat profile : &lt;a class=&quot;__cf_email__&quot; href=&quot;/cdn-cgi/l/email-protection&quot; data-cfemail=&quot;e9a1808e81a9a5dac7d8&quot;&gt;[email&amp;#160;protected]&lt;/a&gt;&lt;script cf-hash='f9e31' type=&quot;text/javascript&quot;&gt;\n/* &lt;![CDATA[ */!function(){try{var t=&quot;currentScript&quot;in document?document.currentScript:function(){for(var t=document.getElementsByTagName(&quot;script&quot;),e=t.length;e--;)if(t[e].getAttribute(&quot;cf-hash&quot;))return t[e]}();if(t&amp;&amp;t.previousSibling){var e,r,n,i,c=t.previousSibling,a=c.getAttribute(&quot;data-cfemail&quot;);if(a){for(e=&quot;&quot;,r=parseInt(a.substr(0,2),16),n=2;a.length-n;n+=2)i=parseInt(a.substr(n,2),16)^r,e+=String.fromCharCode(i);e=document.createTextNode(e),c.parentNode.replaceChild(e,c)}}}catch(u){}}();/* ]]&gt; */&lt;/script&gt;\nFormat settings, CABAC : Yes\nFormat settings, ReFrames : 4 frames\nCodec ID : V_MPEG4/ISO/AVC\nDuration : 1h 32mn\nBit rate : 1 141 Kbps\nWidth : 1 280 pixels\nHeight : 720 pixels\nDisplay aspect ratio : 16:9\nFrame rate mode : Constant\nFrame rate : 25.000 fps\nColor space : YUV\nChroma subsampling : 4:2:0\nBit depth : 8 bits\nScan type : Progressive\nBits/(Pixel*Frame) : 0.050\nStream size : 736 MiB (84%)\n\nAudio\nID : 2\nFormat : MPEG Audio\nFormat version : Version 1\nFormat profile : Layer 3\nCodec ID : A_MPEG/L3\nCodec ID/Hint : MP3\nDuration : 1h 32mn\nBit rate mode : Constant\nBit rate : 192 Kbps\nChannel(s) : 2 channels\nSampling rate : 44.1 KHz\nCompression mode : Lossy\nDelay relative to video : -23ms\nStream size : 127 MiB (14%)\nDefault : Yes\nForced : No","torrent":{"xt":"urn:btih:319ff6bf9bfd76694ceea95d55bf20ba74109f9e","amp;dn":"Mr+Peabody+and+Sherman+%282014%29+WEBRIP+720p+%28Hardcoded+Subtitles%29","amp;tr":["udp%3A%2F%2Ftracker.openbittorrent.com%3A80","udp%3A%2F%2Fopen.demonii.com%3A1337","udp%3A%2F%2Ftracker.coppersurfer.tk%3A6969","udp%3A%2F%2Fexodus.desync.com%3A6969"],"infoHash":"319ff6bf9bfd76694ceea95d55bf20ba74109f9e","infoHashBuffer":{"type":"Buffer","data":[49,159,246,191,155,253,118,105,76,238,169,93,85,191,32,186,116,16,159,158]},"announce":[],"urlList":[]}}